PLOT

Celebrate 70 years of Popeye The Sailorman with his friends Olive Oyl, Bluto, Wimpy and more as you've never seen them before in a collection of Popeye's best cartoons.

General

70 Years Of Popeye DVDRip Xvid fasamoo LKRG

RIPPER : fasamoo
Format : AVI
Format/Info : Audio Video Interleave
File size : 700 MiB
Duration : 1h 25mn
Overall bit rate : 1 141 Kbps
Writing application : VirtualDubMod 1.5.4.1 (build 2178/release)
Writing library : VirtualDubMod build 2178/release
Language : English
Genre : Animation


Video
ID : 0
Format : MPEG-4 Visual
Format profile : Advanced Simple@L5
Format settings, BVOP : Yes
Format settings, QPel : No
Format settings, GMC : No warppoints
Format settings, Matrix : Custom
Codec ID : XVID
Codec ID/Hint : XviD
Duration : 1h 25mn
Bit rate : 1 010 Kbps
Width : 608 pixels
Height : 320 pixels
Display aspect ratio : 1.900
Frame rate : 25.000 fps
Color space : YUV
Chroma subsampling : 4:2:0
Bit depth : 8 bits
Scan type : Progressive
Bits/(Pixel*Frame) : 0.208
Stream size : 620 MiB (89%)
Writing library : XviD 1.2.1 (UTC 2008-12-04)

Audio
ID : 1
Format : MPEG Audio
Format version : Version 1
Format profile : Layer 3
Mode : Joint stereo
Mode extension : MS Stereo
Codec ID : 55
Codec ID/Hint : MP3
Duration : 1h 25mn
Bit rate mode : Variable
Bit rate : 118 Kbps
Nominal bit rate : 128 Kbps
Channel(s) : 2 channels
Sampling rate : 48.0 KHz
Stream size : 72.4 MiB (10%)
Alignment : Aligned on interleaves
Interleave, duration : 24 ms (0.60 video frame)
Interleave, preload duration : 520 ms
Writing library : LAME3.98r
Encoding settings : -m j -V 4 -q 2 -lowpass 17 --abr 128
 
http://www.imdb.com/title/tt0145628/
 
http://leetleech.org/images/33989313134519851455.png 
http://leetleech.org/images/61978958312434606370.png 
http://leetleech.org/images/40731329428453630980.png 
http://leetleech.org/images/33341971030358603982.png